# xmcd
#
# Track frame offsets: 
#        150
#        12474
#        21383
#        38889
#        47116
#        67631
#        78523
#        97077
#        110237
#        124977
#        145381
#        163659
#        180113
#        182202
#
# Disc length: 2647 seconds
#
# Revision: 0
# Processed by: cddbd v1.5.1PL0 Copyright (c) Steve Scherf et al.
# Submitted via: ExactAudioCopy v0.95a5
#
DISCID=c20a550e
DTITLE=Barbra Streisand - Hungry - Live in San Francisco
DYEAR=1963
DGENRE=
TTITLE0=Any Place I Hang My Hat Is Home
TTITLE1=Keepin' Out Of Mischief Now
TTITLE2=Cry My A River
TTITLE3=Lover, Come Back To Me
TTITLE4=I Stayed Too Long At The Fair
TTITLE5=My Honey's Loving Arms
TTITLE6=Soon It's Gonna Rain
TTITLE7=When The Sun Comes Out
TTITLE8=Much More
TTITLE9=Like A Straw In The Wind
TTITLE10=Right As The Rain
TTITLE11=Down With Love
TTITLE12=Bewitched
TTITLE13=Happy Days Are Here Again
EXTD=
EXTT0=
EXTT1=
EXTT2=
EXTT3=
EXTT4=
EXTT5=
EXTT6=
EXTT7=
EXTT8=
EXTT9=
EXTT10=
EXTT11=
EXTT12=
EXTT13=
PLAYORDER=
